<svg xmlns="http://www.w3.org/2000/svg" viewBox="0 0 100 100" width="100" height="100">
    <defs>
      <linearGradient id="ballFire" x1="0%" y1="100%" x2="100%" y2="0%">
        <stop offset="0%" stop-color="#f59e0b" />
        <stop offset="100%" stop-color="#ef4444" />
      </linearGradient>
    </defs>
    <path d="M10,50 C20,30 40,25 60,40 C50,22 30,22 15,35" fill="none" stroke="url(#ballFire)" stroke-width="3" stroke-linecap="round" opacity="0.8" />
    <path d="M12,58 C25,48 45,45 62,54 C48,38 28,40 18,50" fill="none" stroke="url(#ballFire)" stroke-width="4" stroke-linecap="round" />
    <path d="M15,66 C28,62 42,62 58,68 C45,55 30,58 20,64" fill="none" stroke="url(#ballFire)" stroke-width="3" stroke-linecap="round" opacity="0.8" />
    <circle cx="68" cy="50" r="22" fill="#1e293b" stroke="url(#ballFire)" stroke-width="3.5" />
    <polygon points="68,38 78,45 74,56 62,56 58,45" fill="url(#ballFire)" />
    <path d="M68,38 L68,28 M78,45 L88,43 M74,56 L81,64 M62,56 L55,64 M58,45 L48,43" stroke="#fff" stroke-width="1.5" stroke-linecap="round" />
    <path d="M68,28 L80,33 L88,43 L84,56 L81,64 L68,72 L55,64 L52,56 L48,43 L56,33 Z" fill="none" stroke="#fff" stroke-width="1.5" />
  </svg>