<svg xmlns="http://www.w3.org/2000/svg" viewBox="0 0 100 100" width="100" height="100">
    <defs>
      <linearGradient id="neonCupGrad" x1="0%" y1="0%" x2="100%" y2="100%">
        <stop offset="0%" stop-color="#00f2fe"/>
        <stop offset="100%" stop-color="#4facfe"/>
      </linearGradient>
    </defs>
    <path d="M50,90 L20,60 L20,20 L50,5 L80,20 L80,60 Z" fill="#0b1329" stroke="url(#neonCupGrad)" stroke-width="2" />
    <path d="M32,26 L68,26 L64,50 C62,58 56,62 50,62 C44,62 38,58 36,50 Z" fill="url(#neonCupGrad)" />
    <path d="M32,30 C20,30 20,44 33,44" fill="none" stroke="url(#neonCupGrad)" stroke-width="3" stroke-linecap="round" />
    <path d="M68,30 C80,30 80,44 67,44" fill="none" stroke="url(#neonCupGrad)" stroke-width="3" stroke-linecap="round" />
    <rect x="42" y="62" width="16" height="12" fill="#4facfe" rx="2" />
    <rect x="36" y="74" width="28" height="6" fill="url(#neonCupGrad)" rx="2" />
    <polygon points="50,36 53,42 60,42 55,46 57,52 50,48 43,52 45,46 40,42 47,42" fill="#fff" filter="drop-shadow(0 0 4px #fff)" />
  </svg>