<?xml version="1.0" encoding="UTF-8" standalone="no"?>
<!-- Generator: Adobe Illustrator 27.2.0, SVG Export Plug-In . SVG Version: 6.00 Build 0)  -->

<svg
   version="1.1"
   id="Layer_1"
   x="0px"
   y="0px"
   viewBox="0 0 257.55594 300"
   xml:space="preserve"
   sodipodi:docname="Ittihad-sponsorship.svg"
   width="257.55594"
   height="300"
   inkscape:version="1.3.2 (091e20e, 2023-11-25, custom)"
   xmlns:inkscape="http://www.inkscape.org/namespaces/inkscape"
   xmlns:sodipodi="http://sodipodi.sourceforge.net/DTD/sodipodi-0.dtd"
   xmlns="http://www.w3.org/2000/svg"
   xmlns:svg="http://www.w3.org/2000/svg"><defs
   id="defs49">
	
</defs><sodipodi:namedview
   id="namedview49"
   pagecolor="#ffffff"
   bordercolor="#999999"
   borderopacity="1"
   inkscape:showpageshadow="2"
   inkscape:pageopacity="0"
   inkscape:pagecheckerboard="0"
   inkscape:deskcolor="#d1d1d1"
   inkscape:zoom="0.626"
   inkscape:cx="249.20128"
   inkscape:cy="290.73482"
   inkscape:window-width="1500"
   inkscape:window-height="912"
   inkscape:window-x="-8"
   inkscape:window-y="-8"
   inkscape:window-maximized="1"
   inkscape:current-layer="Layer_1" />
<style
   type="text/css"
   id="style1">
	.st0{fill:#261E1D;}
	.st1{fill:#FEF201;}
</style>
<g
   id="الشعار"
   inkscape:label="Logo"
   transform="matrix(0.51635112,0,0,0.51635112,-129.39759,-108.17556)">
		<path
   class="st0"
   d="M 716.3,619.6 H 690.2 V 241.5 l -33.3,-32 h -267 L 250.6,344.3 v 88.2 l 31,31.9 h 26.7 v 154.8 h -49.6 c 0,0 -8.1,0.8 -8.1,10.5 v 128.8 l 32.4,32 h 460.1 c 0,0 6.3,-0.7 6.3,-9.7 V 651.6 Z"
   id="path1" />
		<path
   class="st1"
   d="M 262.2,755 H 713 V 630.2 h -59.9 v -409 H 393.2 L 261,349.6 v 78.9 h 59.3 v 202.2 h -57.8 z"
   id="path2" />
		<path
   class="st0"
   d="M 623.2,327.1 V 425 c 0,0 8.6,115.6 -136.7,200.8 0,0 -128.4,-63.7 -137.9,-197 V 327.2 c 0,-0.1 127.1,-79.7 274.6,-0.1 z"
   id="path3" />
		<path
   class="st1"
   d="M 601.7,329.2 361.9,438.7 c 0,0 -1.8,-11.2 -1.8,-24.3 v -80.8 c 0,0.1 113.7,-65.9 241.6,-4.4 z"
   id="path4" />
		<path
   class="st1"
   d="M 423.3,502.3 V 564 c 0,0 -30.4,-31.4 -36,-46.4 l 36,-16.4 z"
   id="path5" />
		<path
   class="st1"
   d="M 486.5,473 V 613.3 L 454.1,591.1 V 486.6 l 32.4,-14.3 z"
   id="path6" />
		<path
   class="st1"
   d="m 549.7,444 v 121.3 l -32,28.1 v -135 l 32,-14.9 z"
   id="path7" />
		<path
   class="st1"
   d="m 612.8,415.7 -30.8,13 v 94.1 c 0,0 30.4,-39 30.8,-107.1 z"
   id="path8" />
		<g
   id="نادي_الاتحاد">
			<path
   class="st1"
   d="m 598.6,366.6 v 23.7 l -22.9,10.3 v -28.8 h -4.1 l 3.9,-6.4 7.6,-3.9 v 28.4 l 7.8,-3.9 v -16.7 z"
   id="path9" />
			<path
   class="st1"
   d="m 598.6,362.8 -7.5,2.6 v -7.6 l 7.5,-3.1 z"
   id="path10" />
			<path
   class="st1"
   d="m 549.7,412.8 20.7,-9.8 v -8.1 c 0,0 -0.5,-14.6 -18.1,-8.6 v 6 c 0,0 12,-4.1 12,6.6 l -14.5,6.1 v 7.8 z"
   id="path11" />
			<path
   class="st1"
   d="m 544.5,414.5 v -16.7 c 0,0 -2.6,-7.9 -10.8,-2.6 l -7.1,3.8 v 16.8 l -7.8,3.9 c 0,0 -7.9,3.2 -7.9,-3.3 0,-6.5 0,-10.8 0,-10.8 l -7.6,5.2 v 6.8 c 0,0 -1.9,16.1 15.3,9.9 l 14.2,-6.4 V 403 c 0,0 -0.3,-2.6 2.6,-2.6 0,0 2.6,-0.3 2.6,2.6 v 14.3 z"
   id="path12" />
			<path
   class="st1"
   d="m 530.2,433.1 -7.5,2.6 V 428 l 7.5,-3.1 z"
   id="path13" />
			<path
   class="st1"
   d="m 520.1,437.4 -7.5,2.6 v -7.7 l 7.5,-3 z"
   id="path14" />
			<path
   class="st1"
   d="m 491.6,438.7 v -36 l -7.7,4.2 -2.6,6.3 h 3.8 v 28.4 z"
   id="path15" />
			<path
   class="st1"
   d="m 478.8,410.5 v 26.3 c 0,0 -0.3,12.5 -19.3,16.1 v -7.7 c 0,0 12.9,-3.1 12.9,-8.9 V 413 Z"
   id="path16" />
			<path
   class="st1"
   d="m 467.2,415.7 v 20.5 l -7.7,4.1 v -22 z"
   id="path17" />
			<path
   class="st1"
   d="M 454.1,432.6 V 456 l -48.9,22.5 v -29.2 h -3.9 l 3,-5.6 7.4,-3.4 v 28 l 22,-10.1 V 453 c 0,0 -0.2,-7.9 -11.3,-0.9 l -5.6,2.6 2,-6.3 c 0,0 10.8,-7 17.1,-4.8 6.3,2.2 3.8,12 3.8,12 l 7,-3.1 V 435 Z"
   id="path18" />
			<path
   class="st1"
   d="m 453.5,428.6 -7.1,2.5 v -7.4 l 7.1,-2.9 z"
   id="path19" />
			<path
   class="st1"
   d="m 445,432.1 -7.1,2.5 v -7.4 l 7.1,-2.9 z"
   id="path20" />
			<path
   class="st1"
   d="m 378.6,490.4 20.7,-9.8 v -8.1 c 0,0 -0.5,-14.6 -18.1,-8.6 v 6 c 0,0 12,-4.1 12,6.6 l -14.5,6.1 v 7.8 z"
   id="path21" />
		</g>
		<g
   id="JEDDAH">
			<ellipse
   class="st0"
   cx="464.20001"
   cy="340.5"
   rx="2.7"
   ry="3"
   id="ellipse21" />
			<path
   class="st0"
   d="m 446.5,326.8 1.2,-5.4 c 0,0 17.8,-13.5 23.2,-2.2 v 11.2 l -54.2,24.8 V 349 l 14.3,-5.9 v -5.3 c 0,0 -1,-5.4 -14.3,3.2 v -5 c 0,0 10.7,-10.2 18.3,-2.8 1.6,2.3 1.4,7.9 1.4,7.9 l 29.4,-14.3 v -5.1 c 0,0 -0.9,-6.3 -19.5,6.3 z"
   id="path22" />
			<path
   class="st0"
   d="m 395.1,346.2 c 0,0 -3.9,15.2 4.9,15.2 11,0 13,-8.8 13,-8.8 v -15.1 z m 12.7,6 c 0,0 -0.9,4.1 -6.2,4.1 -4.3,0 -2.4,-7.1 -2.4,-7.1 l 8.6,-4 z"
   id="path23" />
			<ellipse
   class="st0"
   cx="400.10001"
   cy="336.60001"
   rx="2.7"
   ry="3"
   id="ellipse23" />
			<ellipse
   class="st0"
   cx="406.20001"
   cy="333.70001"
   rx="2.7"
   ry="3"
   id="ellipse24" />
			<path
   class="st0"
   d="m 395.1,414.5 124.2,-57.3 c 0,0 5.6,-3.2 2.9,-9.4 -2.7,-6.1 -8.9,-3.4 -8.9,-3.4 L 492.2,355 c 0,0 -1.8,0.7 -1.8,-1.2 v -12.2 c 0,0 -0.9,-7.8 -11.4,-3.6 v -30.6 l -3.9,1.4 v 58 l 3.9,-1.4 v -19.5 c 0,0 0.2,-2.3 4.4,-2.3 0,0 3.1,-0.3 3.1,2 v 10 c 0,0 -0.2,3.4 4.3,3.4 4.5,0 23.6,-10.2 23.6,-10.2 0,0 3.2,-1.6 3.2,2.5 0,0 0.3,2.1 -10.3,6.1 l -112.1,52.1 z"
   id="path24" />
			<path
   class="st0"
   d="m 464.2,347.2 -9.7,4.1 v 5 c 0,0 7.9,-6.1 11.2,-3.8 v 2.7 c 0,0 -7.6,1.5 -11.2,7.3 v 5.4 c 0,0 -0.7,5.1 7,5.1 7.7,0 9.5,-8.5 9.5,-8.5 v -9.4 c 0,0.1 0.4,-7.9 -6.8,-7.9 z m 1.8,17.6 v 0.7 l -0.2,0.4 -0.4,0.7 -0.4,0.6 -0.5,0.5 -0.6,0.3 -0.6,0.3 -0.9,0.2 -0.7,0.1 h -0.3 -0.5 l -0.4,-0.1 -0.3,-0.2 -0.4,-0.5 -0.2,-0.3 -0.2,-0.4 -0.1,-0.6 -0.1,-0.6 v -0.6 -0.3 l 0.1,-0.4 0.2,-0.9 0.1,-0.5 6.6,-3.1 z"
   id="path25" />
			<path
   class="st0"
   d="m 450.5,372.6 v -29.2 c -2.6,-0.2 -3.8,1.4 -3.8,1.4 v 10.3 c -10.8,2.8 -11.6,7.6 -11.6,7.6 v 8.1 c 0,4.6 -0.9,11.3 4.7,11.3 11.3,0 10.7,-9.5 10.7,-9.5 z m -3.9,2.8 c 0,0 -6.2,4.4 -7.8,1.2 V 364 c 0,0 1.8,-3.1 7.8,-4 z"
   id="path26" />
			<path
   class="st0"
   d="m 430.4,382.3 v -29.2 c -2.6,-0.2 -3.8,1.4 -3.8,1.4 v 10.3 c -10.8,2.8 -11.6,7.6 -11.6,7.6 v 8.1 c 0,4.6 -0.9,11.3 4.7,11.3 11.3,0 10.7,-9.5 10.7,-9.5 z m -3.9,2.9 c 0,0 -6.2,4.4 -7.8,1.2 v -12.6 c 0,0 1.8,-3.1 7.8,-4 z"
   id="path27" />
			<path
   class="st0"
   d="m 400,393.7 10.5,-6.1 c 0,0 2.6,-13.2 -5.7,-13.2 -9.7,0 -9.7,9.6 -9.7,9.6 v 12.6 c 0,0 0,4.8 5.3,5 6.8,0 9.9,-4.9 9.9,-4.9 v -4.3 c 0,0 -8.5,5 -10.3,4.1 -2.6,-1.3 0,-2.8 0,-2.8 z m 4.9,-15.1 c 2.5,0 1.7,5.8 1.7,5.8 0,0 -5.1,4 -6.3,4 -1.2,0 -1.3,-3.5 -1.3,-3.5 0,-4.5 5.9,-6.3 5.9,-6.3 z"
   id="path28" />
			<path
   class="st0"
   d="m 374.2,372.9 v -14.4 c 0,0 0.3,-4.1 9.7,-7.4 L 390,349 v 64 c 0,0 0.3,5.6 -8.9,8 0,0 -11.7,4.8 -11.7,-3.3 v -24.1 c 0,0 -0.9,-6.4 12.6,-9 v 5.4 c 0,0 -8.5,2 -8.9,7 v 16 1.3 c 0,0 1,4.4 5.4,2.5 4.4,-1.9 7.9,-2.7 7.9,-7.2 v -53.7 c 0,0 -6.6,0.4 -6.6,4.7 v 10.9 z"
   id="path29" />
		</g>
		<g
   id="ITTIHAD_CLUB">
			<path
   class="st0"
   d="m 325.4,697.9 h -20.5 v -9.1 h 5 v -19.2 h -7.6 l 6.3,-9.1 H 319 v 28.4 h 6.3 v 9 z"
   id="path30" />
			<path
   class="st0"
   d="m 334.5,697.9 v -28.4 h -10.2 v -9.1 h 28.3 v 9.1 h -10.2 v 28.3 h -7.9 z"
   id="path31" />
			<path
   class="st0"
   d="m 366.8,697.9 v -28.4 h -10.3 v -9.1 h 28.4 v 9.1 h -10.3 v 28.3 h -7.8 z"
   id="path32" />
			<path
   class="st0"
   d="m 417,697.9 v -37.4 h 7.9 v 14.2 h 11.5 v -14.2 h 7.7 v 37.4 h -7.7 v -14.2 h -11.7 v 14.2 z"
   id="path33" />
			<path
   class="st0"
   d="m 389.9,697.9 v -9 h 5.2 v -19.5 h -5.2 v -9 h 19.3 v 9.1 h -5 v 19.3 h 5 v 9.1 z"
   id="path34" />
			<path
   class="st0"
   d="M 469.7,660.5 H 464 l -15,37.4 h 9.1 l 2.9,-6.5 h 11.9 l 2.3,6.5 h 10 z m -5.6,23.6 2.6,-8.5 3.2,8.5 z"
   id="path35" />
			<path
   class="st0"
   d="m 518.7,678.2 c 0,-17.9 -16.7,-17.7 -16.7,-17.7 h -14.1 v 37.4 h 15.5 c 16.8,0 15.3,-19.7 15.3,-19.7 z m -15.9,10.6 h -7.4 v -19.2 h 6.8 c 0,0 8.1,-0.2 8.1,9.1 -0.1,-0.1 0.6,10.1 -7.5,10.1 z"
   id="path36" />
			<path
   class="st0"
   d="m 565.4,675.9 h 8.3 c 0,-15.5 -16.8,-15.4 -16.8,-15.4 -18.4,0 -17.7,18.7 -17.7,18.7 0,19 17.4,18.7 17.4,18.7 15.5,0 17.1,-15.1 17.1,-15.1 h -8.4 c 0,0 -1.8,6.1 -8.9,6.1 -7.1,0 -9.4,-5.8 -9.4,-10.9 0,0 0.4,-8.5 10.2,-8.5 7.5,0.2 8.2,6.4 8.2,6.4 z"
   id="path37" />
			<path
   class="st0"
   d="m 579.2,697.9 v -37.4 h 9.3 V 689 h 14.3 v 8.9 z"
   id="path38" />
			<path
   class="st0"
   d="m 606.5,660.5 v 24 c 0,0 -0.1,13.4 14.5,13.4 0,0 13.8,0.1 13.8,-13.8 v -23.6 h -9 v 24.2 c 0,0 0.2,4.2 -5.2,4.2 0,0 -5.3,0.6 -5.3,-4.5 v -23.9 z"
   id="path39" />
			<path
   class="st0"
   d="m 662.5,678.4 c 0,0 4.4,-0.6 4.4,-7.4 0,-10.1 -10.1,-10.4 -10.1,-10.4 h -2.6 -13.1 V 698 h 14.3 c 9,0 12.6,-4.6 12.6,-11.7 0.3,-7.2 -5.5,-7.9 -5.5,-7.9 z m -12.2,-3.5 v -6.6 h 5.6 c 0,0 3.3,0.1 3.3,4.4 0,0 0.5,3.4 -3.2,3.4 h -5.8 v -1.2 z m 6.8,13.7 h -6.8 v -0.9 -5.3 h 6.6 c 0,0 3.9,0.1 3.9,3.5 -0.1,0 0.5,2.7 -3.7,2.7 z"
   id="path40" />
		</g>
		<g
   id="التاريخ"
   inkscape:label="Dates">
			<path
   class="st0"
   d="m 402.7,713.3 h 5.2 V 734 h -5.2 z"
   id="path41" />
			<path
   class="st0"
   d="m 413.1,734.1 v -20.7 h 5.1 v 7.9 c 0.9,0.8 1.7,0.8 2.6,0 v -7.9 h 3.8 v 7.8 c 0.7,0.6 1.4,0.6 2,0 v -7.8 h 4.4 v 6.6 c 0,0 0.5,5 -5.2,5 -2.6,0 -3,-1.3 -3,-1.3 0,0 -1.6,2.6 -4.6,1.3 v 9.1 z"
   id="path42" />
			<path
   class="st0"
   d="m 446.6,734.1 h -8.5 c 0,0 -4.6,0.1 -4.6,-6.7 0,0 0.3,-3.7 1.8,-3.7 0,0 -2.4,-2.3 -1.8,-5.1 0,0 1.1,-5.3 7.4,-5.3 h 5.6 v 5.1 H 440 c -1.3,0 -1.3,3.9 0,3.9 h 6.6 v 3.8 h -7.7 c -0.7,0 -0.7,3.9 0,3.9 h 7.7 z"
   id="path43" />
			<path
   class="st0"
   d="m 458.2,734.1 v -15.5 h -7.7 v -5.3 h 0.9 12 v 20.8 z"
   id="path44" />
			<path
   class="st0"
   d="m 482.6,727.7 h 7.8 v 6.4 h -7.8 z"
   id="path45" />
			<path
   class="st0"
   d="M 516.4,734.1 V 713.6 H 512 l -6.2,5.8 v 3 h 5.4 v 11.7 z"
   id="path46" />
			<path
   class="st0"
   d="m 528.1,713.6 c 0,0 -8.1,-1 -8.1,8.2 0,6.1 6.9,5.9 6.9,5.9 0,0 -2.7,6.4 -4.1,6.4 h 6.2 c 0,0 6.3,-5.7 6.3,-13.1 0,-7.4 -7.2,-7.4 -7.2,-7.4 z m -0.4,10.6 c -1.6,0 -3,-1.4 -3,-3 0,-1.6 1.4,-3 3,-3 1.6,0 3,1.4 3,3 0,1.7 -1.3,3 -3,3 z"
   id="path47" />
			<path
   class="st0"
   d="m 562.3,734.1 6.7,-13.8 v -6.7 h -13 v 5 h 8.1 l -7.8,15.5 z"
   id="path48" />
			<path
   class="st0"
   d="m 538.3,721.2 c 0,0 0,-7.7 7,-7.7 0,0 7,-0.9 7,7.7 -0.5,5 -7,9 -7,9 h 7 v 3.8 h -13.2 v -4.4 l 7.9,-7.1 c 0,0 0.6,-4 -2.1,-4 -1.5,0 -1.7,2.7 -1.7,2.7 z"
   id="path49" />
		</g>
	</g>
</svg>
