<svg xmlns="http://www.w3.org/2000/svg" viewBox="0 0 100 100" width="100" height="100">
    <defs>
      <linearGradient id="phoenixGrad" x1="0%" y1="100%" x2="0%" y2="0%">
        <stop offset="0%" stop-color="#ff3f00"/>
        <stop offset="50%" stop-color="#ffaf00"/>
        <stop offset="100%" stop-color="#ffffd0"/>
      </linearGradient>
    </defs>
    <path d="M50,92 L20,62 L20,22 L50,8 L80,22 L80,62 Z" fill="#0f172a" stroke="url(#phoenixGrad)" stroke-width="2" />
    <path d="M50,56 C30,56 16,40 22,25 C16,45 32,58 50,62" fill="url(#phoenixGrad)" />
    <path d="M50,56 C70,56 84,40 78,25 C84,45 68,58 50,62" fill="url(#phoenixGrad)" />
    <path d="M50,62 C40,70 42,85 50,90 C58,85 60,70 50,62" fill="url(#phoenixGrad)" />
    <path d="M50,32 C47,32 44,28 44,24 C48,22 50,16 50,16 C50,16 52,22 56,24 C56,28 53,32 50,32 Z" fill="#fff" filter="drop-shadow(0 0 3px #ffaf00)" />
    <path d="M46,32 L54,32 L52,58 L48,58 Z" fill="url(#phoenixGrad)" />
    <polygon points="50,24 48,26 52,26" fill="#ff3f00" />
  </svg>