<svg xmlns="http://www.w3.org/2000/svg" viewBox="0 0 100 100" width="100" height="100">
    <defs>
      <linearGradient id="wolfGrad" x1="0%" y1="0%" x2="100%" y2="100%">
        <stop offset="0%" stop-color="#00f2fe"/>
        <stop offset="100%" stop-color="#4facfe"/>
      </linearGradient>
    </defs>
    <path d="M50,92 L20,62 L20,22 L50,8 L80,22 L80,62 Z" fill="#0f172a" stroke="url(#wolfGrad)" stroke-width="2" />
    <polygon points="28,26 40,38 32,44" fill="url(#wolfGrad)" />
    <polygon points="72,26 60,38 68,44" fill="url(#wolfGrad)" />
    <polygon points="32,44 42,48 26,58" fill="#4facfe" />
    <polygon points="68,44 58,48 74,58" fill="#4facfe" />
    <polygon points="40,38 50,30 60,38 58,60 50,72 42,60" fill="#1e293b" stroke="url(#wolfGrad)" stroke-width="2" />
    <polygon points="50,42 42,48 46,52 50,48 54,52 58,48" fill="url(#wolfGrad)" />
    <polygon points="46,52 54,52 50,64" fill="#00f2fe" />
    <polygon points="43,44 48,46 46,42" fill="#fff" filter="drop-shadow(0 0 3px #00f2fe)" />
    <polygon points="57,44 52,46 54,42" fill="#fff" filter="drop-shadow(0 0 3px #00f2fe)" />
  </svg>