<?xml version="1.0" encoding="UTF-8" standalone="no"?>
<svg
   viewBox="0 0 263.97055 300"
   version="1.1"
   sodipodi:docname="Al Ahli.svg"
   width="263.97055"
   height="300"
   inkscape:version="1.4 (e7c3feb1, 2024-10-09)"
   xmlns:inkscape="http://www.inkscape.org/namespaces/inkscape"
   xmlns:sodipodi="http://sodipodi.sourceforge.net/DTD/sodipodi-0.dtd"
   xmlns="http://www.w3.org/2000/svg"
   xmlns:svg="http://www.w3.org/2000/svg">
  <sodipodi:namedview
     id="namedview11"
     pagecolor="#ffffff"
     bordercolor="#000000"
     borderopacity="0.25"
     inkscape:showpageshadow="2"
     inkscape:pageopacity="0.0"
     inkscape:pagecheckerboard="0"
     inkscape:deskcolor="#d1d1d1"
     inkscape:zoom="0.6970152"
     inkscape:cx="337.86925"
     inkscape:cy="359.38958"
     inkscape:window-width="1440"
     inkscape:window-height="900"
     inkscape:window-x="0"
     inkscape:window-y="0"
     inkscape:window-maximized="0"
     inkscape:current-layer="Layer_1" />
  <defs
     id="defs1">
    <style
       id="style1">
      .cls-1 {
        fill: #fff;
      }

      .cls-2 {
        fill: #002a49;
      }

      .cls-3 {
        fill: #008357;
      }
    </style>
  </defs>
  <g
     id="g11"
     transform="matrix(0.54608006,0,0,0.54608006,-141.05475,-122.84617)">
    <path
       class="cls-1"
       d="M 497.97,773.41 C 497.35,773.13 435.19,744.37 374.98,678.4 339.65,639.68 311.85,595.89 292.35,548.23 267.99,488.69 256.6,422.95 258.51,352.84 l 0.14,-5.27 5.24,0.55 c 0,0 3.57,0.36 9.32,0.36 14.97,0 44.01,-2.32 70.21,-17.85 32.16,-19.06 49.95,-51.95 52.89,-97.76 l 0.51,-7.91 6.84,4.01 c 0.33,0.19 33.82,19.19 96.35,19.19 62.53,0 96.03,-19 96.36,-19.19 l 6.81,-3.98 0.51,7.88 c 2.94,45.81 20.73,78.71 52.89,97.77 26.19,15.52 55.23,17.85 70.2,17.85 5.45,0 8.93,-0.32 9.32,-0.36 l 5.24,-0.54 0.15,5.26 c 1.91,70.11 -9.48,135.84 -33.84,195.38 -19.5,47.66 -47.3,91.45 -82.63,130.17 -60.2,65.97 -122.36,94.73 -122.99,95.01 l -2.02,0.92 -2.03,-0.92 v 0 z"
       id="path1" />
    <path
       class="cls-1"
       d="M 498.09,758.34 C 497.5,758.07 438.74,730.9 381.82,668.56 348.42,631.98 322.14,590.59 303.7,545.55 280.67,489.28 269.91,427.16 271.71,360.92 l 0.13,-4.98 4.96,0.52 c 0,0 3.38,0.34 8.81,0.34 14.16,0 41.61,-2.2 66.37,-16.86 30.4,-18.01 47.22,-49.09 50,-92.38 l 0.48,-7.48 6.46,3.79 c 0.31,0.18 31.97,18.13 91.09,18.13 59.12,0 90.78,-17.95 91.09,-18.13 l 6.44,-3.76 0.48,7.45 c 2.77,43.29 19.59,74.38 50,92.39 24.76,14.67 52.21,16.86 66.36,16.86 5.16,0 8.44,-0.3 8.81,-0.34 l 4.96,-0.51 0.14,4.97 c 1.8,66.25 -8.96,128.37 -31.99,184.63 -18.44,45.04 -44.72,86.42 -78.12,123.01 -56.91,62.34 -115.67,89.51 -116.27,89.78 l -1.91,0.87 -1.91,-0.87 v 0 z"
       id="path2" />
    <path
       class="cls-2"
       d="m 736.61,352.98 c 0,0 -3.67,0.38 -9.83,0.38 -30.33,0 -120.87,-9.34 -127.96,-120.19 0,0 -33.84,19.86 -98.82,19.86 -64.98,0 -98.82,-19.86 -98.82,-19.86 -7.1,110.83 -97.64,120.19 -127.96,120.19 -6.15,0 -9.83,-0.38 -9.83,-0.38 -8.26,304.36 236.6,415.99 236.6,415.99 0,0 244.88,-111.63 236.6,-415.99 v 0 z m -43.19,188.79 c -18.7,45.89 -45.39,88.09 -79.32,125.43 -30.29,33.33 -60.89,56.56 -81.21,70.17 -15.04,10.07 -26.83,16.51 -32.88,19.63 -14.87,-7.66 -64.62,-35.58 -113.48,-89.12 -34.09,-37.36 -60.91,-79.6 -79.71,-125.55 -22.28,-54.45 -33.32,-114.35 -32.88,-178.21 16.78,-0.08 48.47,-2.85 77.44,-20.03 16.74,-9.93 30.29,-23.32 40.26,-39.8 9.46,-15.64 15.74,-34.16 18.71,-55.2 16.43,6.27 46.55,14.71 89.65,14.71 43.1,0 73.21,-8.44 89.65,-14.71 2.97,21.04 9.25,39.56 18.71,55.2 9.98,16.48 23.52,29.87 40.26,39.8 28.97,17.17 60.67,19.95 77.44,20.03 0.45,63.65 -10.52,123.36 -32.65,177.67 v 0 z m -221.44,-35.71 -0.49,-5.46 -4.4,0.39 0.49,5.46 4.4,-0.4 v 0 z m -36.52,3.29 -0.49,-5.46 -4.4,0.39 0.49,5.46 z m 92.33,0.28 -0.49,-5.46 -4.4,0.39 0.49,5.46 z m 49.83,-10.13 -0.49,-5.46 -4.4,0.4 0.49,5.46 z m -229,17.58 8.34,-2.42 -0.22,-2.43 -8.34,2.42 z m 8.02,-6.46 -0.22,-2.43 -8.34,2.42 0.22,2.43 z m 24.85,12.5 c -0.34,-3.77 -3.04,-6.47 -7.47,-6.07 l -0.99,0.09 c -3.84,0.34 -6.5,3.53 -6.16,7.3 l 1.07,11.87 c 0.04,0.42 -0.22,0.73 -0.64,0.77 l -1.94,0.17 -4.26,0.38 0.93,-12.09 c 0.37,-4.58 -2.39,-7.2 -7.22,-6.77 l -3.24,0.29 c -4.51,0.41 -6.88,3.74 -5.78,7.94 l 3.01,11.73 -3.95,0.35 -2.14,0.2 c -0.42,0.04 -0.73,-0.22 -0.77,-0.64 l -2.11,-23.5 -5.12,1.45 2.04,22.65 c 0.27,3.03 2.52,5.06 5.23,4.82 l 3.31,-0.3 20.5,-1.84 3.77,-0.34 c 2.32,-0.21 3.53,-2.56 3.47,-4.08 0.42,1.92 1.71,3.61 4.98,3.32 3.63,-0.33 4.83,-2.75 4.57,-5.71 l -1.08,-12.02 0.02,0.02 z m -25.4,14.97 -2.25,0.2 -3.1,-13.5 c -0.16,-0.66 0.16,-0.93 0.59,-0.97 l 4.61,-0.42 c 0.42,-0.04 0.79,0.17 0.75,0.86 l -0.6,13.84 v 0 z m 20.61,-1.86 -2.79,0.25 c -0.42,0.04 -0.73,-0.22 -0.77,-0.64 l -1.19,-13.18 c -0.04,-0.42 0.22,-0.73 0.64,-0.77 l 2.79,-0.25 c 0.42,-0.04 0.73,0.22 0.77,0.64 l 1.18,13.18 c 0.04,0.42 -0.22,0.73 -0.64,0.77 z m 216.69,-42.9 2.51,27.9 5.21,-0.47 -2.6,-28.89 z m 35.95,27.13 0.49,5.46 4.4,-0.39 -0.49,-5.46 z m -41.1,-27.66 -5.12,1.46 2.03,22.51 c 0.04,0.42 -0.22,0.73 -0.64,0.77 l -2.15,0.2 -1.9,0.17 c -0.42,0.04 -0.73,-0.22 -0.77,-0.64 l -1.4,-15.6 -5.12,1.46 2.01,22.34 c 0.04,0.42 -0.22,0.73 -0.64,0.77 l -3.63,0.33 0.42,4.69 3.52,-0.31 c 3.14,-0.28 5.64,-2.03 5.26,-6.26 l -0.49,-5.42 c 0.24,2.64 2.21,3.28 3.16,3.19 l 3.31,-0.3 c 2.72,-0.24 4.55,-2.64 4.29,-5.67 l -2.13,-23.64 v -0.02 z m -188.07,50.58 0.49,5.46 4.4,-0.4 -0.49,-5.46 z m 271.26,-46.87 c -0.36,-4.05 -3.55,-5.89 -7.18,-5.57 l -1.16,0.1 c -3.77,0.34 -6.62,3.01 -6.25,7.17 l 1.07,11.83 c 0.27,3.07 2.02,5.43 5.26,5.14 l 0.28,-0.02 c 2.18,-0.2 4.25,-1.77 4.03,-4.13 l 0.54,6.06 c 0.04,0.42 -0.22,0.73 -0.64,0.77 l -4.65,0.42 0.42,4.69 4.76,-0.43 c 3.56,-0.32 5.66,-2.28 5.27,-6.51 l -1.76,-19.52 v 0.02 z m -4.74,13.64 -2.79,0.25 c -0.42,0.04 -0.73,-0.22 -0.77,-0.64 l -1.18,-13.18 c -0.04,-0.42 0.22,-0.73 0.64,-0.77 l 2.79,-0.25 c 0.42,-0.04 0.73,0.22 0.77,0.64 l 1.19,13.18 c 0.04,0.42 -0.22,0.73 -0.64,0.77 z m -22.58,2.03 -1.26,-13.99 c -0.04,-0.42 0.22,-0.73 0.64,-0.77 l 2.72,-0.24 c 0.42,-0.04 0.73,0.22 0.77,0.64 l 0.72,8.07 5.02,-1.44 -0.55,-6.09 c -0.37,-4.12 -2.53,-6.09 -6.91,-5.7 l -1.8,0.16 c -4.23,0.38 -5.99,2.53 -5.6,6.9 l 0.78,8.66 c 0.27,3.07 1.76,4.14 2.99,4.03 l -5.04,0.46 -2.96,0.27 -1.58,-17.61 -5.12,1.45 1.5,16.63 -2.99,0.27 -1.9,0.17 c -0.42,0.04 -0.73,-0.22 -0.77,-0.64 l -1.52,-16.91 -5.12,1.45 2.13,23.64 c 0.04,0.42 -0.22,0.73 -0.64,0.77 l -3.63,0.33 0.42,4.68 3.52,-0.31 c 3.13,-0.28 5.64,-2.03 5.26,-6.26 l -0.49,-5.42 c 0.24,2.64 2.21,3.28 3.16,3.19 l 11.17,-1 16.73,-1.51 -0.42,-4.68 -9.23,0.83 v -0.02 z m -139.99,-5.19 -5.12,1.45 1.44,15.95 c 0.04,0.42 -0.22,0.73 -0.64,0.77 l -3.95,0.35 -1.47,-16.31 -5.12,1.46 1.38,15.33 -4.65,0.42 -1.46,-16.24 -5.12,1.45 1.37,15.26 -3.41,0.31 -2.96,0.27 -1.59,-17.61 -5.12,1.45 1.5,16.63 -2.99,0.27 -2.64,0.24 c 0.02,-0.21 0,-0.39 -0.02,-0.57 l -1.08,-12.02 c -0.34,-3.77 -3.04,-6.47 -7.47,-6.07 l -0.99,0.09 c -3.84,0.35 -6.5,3.53 -6.16,7.3 l 1.07,11.87 c 0.04,0.42 -0.22,0.73 -0.64,0.77 l -1.9,0.17 -2.61,0.24 -1.22,-13.6 c -0.35,-3.84 -2.85,-5.64 -5.92,-5.36 -1.62,0.15 -2.94,0.87 -4.07,1.79 l -2.35,1.92 -0.28,-3.14 -5.12,1.46 1.66,18.5 -2.61,0.24 -1.9,0.17 c -0.42,0.04 -0.73,-0.22 -0.77,-0.64 l -1.67,-18.56 -9.51,0.86 c -3.31,0.3 -4.89,2.07 -4.39,5.23 l 2.61,16.71 -2.61,0.24 c -2.11,0.19 -3.77,0.27 -4.08,-3.15 -0.31,-3.41 0.55,-12.02 0.55,-12.02 l -5.08,0.46 c 0,0 -1.04,7.41 -0.63,11.99 0.62,6.91 4.4,7.88 8.99,7.46 l 3.98,-0.36 c 2.93,-0.27 4.51,-2.72 4.03,-5.8 l -2.44,-15.69 c -0.06,-0.27 0.14,-0.44 0.38,-0.46 l 3.41,-0.31 1.26,14.02 c 0.27,3.07 2.52,5.06 5.34,4.81 l 2.96,-0.27 22.51,-2.02 3.73,-0.34 c 2.32,-0.21 3.53,-2.56 3.47,-4.07 0.42,1.92 1.71,3.61 4.98,3.31 2.18,-0.2 3.48,-1.17 4.1,-2.5 0.57,1.22 1.6,1.99 3.54,1.81 l 11.16,-1 23.5,-2.11 c 2.82,-0.25 4.65,-2.72 4.38,-5.79 l -1.53,-16.98 v 0 z m -72.45,24.31 -0.91,-10.08 c -0.04,-0.39 0.12,-0.62 0.42,-0.85 l 5.32,-4.39 c 0.13,-0.12 0.23,-0.13 0.31,-0.13 0.24,-0.02 0.41,0.17 0.43,0.46 l 1.3,14.38 -6.87,0.62 v 0 z m 25.99,-2.33 -2.78,0.25 c -0.42,0.04 -0.73,-0.22 -0.77,-0.64 l -1.19,-13.18 c -0.04,-0.42 0.22,-0.73 0.64,-0.77 l 2.78,-0.25 c 0.42,-0.04 0.73,0.22 0.77,0.64 l 1.19,13.18 c 0.04,0.42 -0.22,0.73 -0.64,0.77 z m 109.07,-22.5 c -0.34,-3.77 -3.03,-6.47 -7.47,-6.07 l -0.99,0.09 c -3.84,0.34 -6.5,3.53 -6.16,7.3 l 1.07,11.87 c 0.04,0.42 -0.22,0.73 -0.64,0.77 l -1.94,0.17 -2.15,0.2 c -0.42,0.04 -0.73,-0.22 -0.77,-0.64 l -2.11,-23.5 -5.12,1.46 2.04,22.65 c 0.27,3.03 2.52,5.06 5.23,4.82 l 3.31,-0.3 3.77,-0.34 c 2.32,-0.21 3.53,-2.56 3.47,-4.08 0.42,1.91 1.71,3.61 4.98,3.32 3.63,-0.33 4.83,-2.75 4.57,-5.71 l -1.08,-12.02 v 0 z m -4.79,13.11 -2.79,0.25 c -0.42,0.04 -0.73,-0.22 -0.77,-0.64 l -1.18,-13.18 c -0.04,-0.42 0.22,-0.73 0.64,-0.77 l 2.79,-0.25 c 0.42,-0.04 0.73,0.22 0.77,0.64 l 1.18,13.18 c 0.04,0.42 -0.22,0.73 -0.64,0.77 z m -155.31,23.27 0.49,5.46 4.4,-0.39 -0.49,-5.46 z m 130.03,-38.75 -5.12,1.56 2.03,22.62 c 0.05,0.49 -0.21,0.76 -0.68,0.81 l -3.38,0.31 c -4.12,0.37 -4.29,-1.15 -4.54,-3.85 -0.33,-3.63 0.4,-8.52 1.08,-12.81 l -4.83,0.43 c -0.84,4.51 -1.61,8.99 -1.21,13.39 0.6,6.73 4.76,7.99 9.14,7.6 l 5.25,-0.47 c 3.41,-0.31 4.66,-2.69 4.38,-5.79 l -2.14,-23.78 v 0 z"
       id="path3" />
    <path
       class="cls-3"
       d="m 637.25,412.61 h 2.65 c 0.29,0 0.52,0.24 0.52,0.52 v 4.06 c 0,0.29 -0.23,0.52 -0.52,0.52 h -2.65 c -0.29,0 -0.52,-0.24 -0.52,-0.52 v -4.06 c 0,-0.29 0.24,-0.52 0.52,-0.52 z"
       id="path4" />
    <path
       class="cls-3"
       d="m 364.33,412.64 h -3.27 v 14.37 h 3.27 c 0.31,0 0.53,-0.21 0.53,-0.53 v -13.32 c 0,-0.31 -0.21,-0.53 -0.53,-0.53 z"
       id="path5" />
    <path
       class="cls-3"
       d="m 574.3,275.82 c -17.93,4.65 -44.49,8.46 -74.31,8.46 -29.82,0 -56.38,-3.81 -74.31,-8.46 -19.62,70.59 -73.87,101.67 -131.03,107.68 1.3,41.67 7.85,81.41 19.52,118.74 l 179.16,-16.13 c 0.2,-5.07 5.26,-7.91 5.26,-11.69 0,-3.78 -5.24,-6.72 -5.27,-11.95 0.03,-5.23 5.27,-8.1 5.27,-11.95 0,-3.85 -5.24,-6.72 -5.27,-11.95 0.03,-5.23 6.68,-11.95 6.68,-11.95 0,0 6.65,6.72 6.68,11.95 -0.03,5.23 -5.27,8.1 -5.27,11.95 0,3.85 5.24,6.72 5.27,11.95 -0.03,5.23 -5.27,8.1 -5.27,11.95 0,3.48 4.27,6.16 5.12,10.51 l 188.42,-16.96 c 6,-27.11 9.48,-55.31 10.39,-84.47 -57.17,-6 -111.41,-37.07 -131.03,-107.68 v 0 z M 339.04,425.96 c 0,2.76 -2.18,4.73 -5.27,4.73 h -0.84 c -3.08,0 -5.27,-1.97 -5.27,-4.73 v -5.45 l 4,-0.79 v 6.77 c 0,0.31 0.21,0.53 0.53,0.53 h 2.31 c 0.31,0 0.53,-0.21 0.53,-0.53 v -13.84 h -7 v -3.42 h 11 v 16.74 z m 14.37,4.47 h -10.26 v -21.21 h 10.16 v 3.42 h -6.16 v 5.13 h 5.37 v 3.42 h -5.37 v 5.82 h 6.26 z m 15.45,-4.74 c 0,2.74 -1.98,4.74 -4.74,4.74 h -7.06 v -21.21 h 7.06 c 2.74,0 4.74,2 4.74,4.73 z m 78.27,10.27 0.91,-4.75 c -5.47,8.15 -14.01,9.41 -14.01,9.41 0.27,-8.87 4.47,-18 15.92,-20.45 21.83,-4.26 40.94,4.62 40.94,4.62 0,0 -22.4,-2.07 -43.76,11.16 v 0 z m 5.2,-23.53 3.04,-3.86 c -5.02,2.76 -9.72,3 -13.42,2.42 l 1.08,-4.21 -8.78,1.56 c -0.5,-12.88 9.7,-15.17 24.41,-12.31 28.07,5.48 38.02,24.92 38.02,24.92 -14.34,-7.4 -28.61,-9.84 -44.33,-8.52 v 0 z m 14.94,-25.3 6.6,-2.65 c -14.28,0.95 -19.75,-6.45 -19.75,-6.45 l 7.8,-2.79 c -21.52,-0.93 -28.93,-18.35 -28.93,-18.35 64.28,-6.41 65.04,55.64 65.04,55.64 0,0 -13.21,-18.25 -30.76,-25.4 z m 28.88,-6.78 c -2.17,-4.11 -5.16,-7.13 -5.5,-10.87 0,0 5.43,1.91 5.67,-0.71 0.19,-2.03 -3.43,-3.72 -3.43,-7.92 0,-5.89 5.48,-8.41 7.1,-12.62 1.62,4.22 7.09,6.73 7.09,12.62 0,4.2 -3.62,5.89 -3.43,7.92 0.24,2.61 5.67,0.71 5.67,0.71 -0.33,3.74 -3.33,6.76 -5.49,10.87 -2.87,5.44 -3.85,9.28 -3.85,9.28 0,0 -0.97,-3.84 -3.85,-9.28 v 0 z m 7.18,40.6 c 0,0 9.94,-19.44 38.02,-24.92 14.71,-2.87 24.91,-0.57 24.41,12.31 l -8.78,-1.56 1.08,4.21 c -3.7,0.58 -8.41,0.34 -13.42,-2.42 l 3.04,3.86 c -15.72,-1.32 -30,1.12 -44.33,8.52 v 0 z m 48.63,10.26 0.91,4.75 c -21.36,-13.23 -43.76,-11.16 -43.76,-11.16 0,0 19.1,-8.88 40.94,-4.62 11.46,2.46 15.64,11.58 15.92,20.45 0,0 -8.54,-1.27 -14.01,-9.41 v 0 z m -13.89,-55.96 7.8,2.79 c 0,0 -5.47,7.4 -19.75,6.45 l 6.6,2.65 c -17.56,7.15 -30.76,25.4 -30.76,25.4 0,0 0.75,-62.06 65.04,-55.64 0,0 -7.41,17.41 -28.93,18.35 z m 91.84,54.93 H 618.7 v -3.38 h 3.8 v -13.39 h -3.19 v -3.04 l 7.15,-1.41 v 17.83 h 3.46 v 3.38 0 z m 14.48,-4.93 c 0,3.01 -2.18,5.2 -5.2,5.2 h -1.25 c -3.01,0 -5.2,-2.18 -5.2,-5.2 v -1.37 l 3.96,-0.78 v 3.19 c 0,0.31 0.2,0.52 0.52,0.52 h 2.7 c 0.31,0 0.52,-0.2 0.52,-0.52 v -7.8 c 0,1.66 -1.64,2.86 -3.82,2.86 -2.18,0 -3.82,-1.74 -3.82,-4.16 v -3.01 c 0,-3.04 2.16,-5.19 5.2,-5.19 h 1.19 c 3.04,0 5.19,2.16 5.19,5.19 v 11.07 0 z m 15.15,0 c 0,3.04 -2.16,5.2 -5.2,5.2 h -1.19 c -3.04,0 -5.2,-2.16 -5.2,-5.2 v -3.3 l 3.96,-0.78 v 5.12 c 0,0.31 0.2,0.52 0.52,0.52 h 2.65 c 0.31,0 0.52,-0.2 0.52,-0.52 v -6.47 c 0,-0.31 -0.2,-0.52 -0.52,-0.52 h -3.43 v -2.1 l 3.04,-4.57 h -6.63 v -3.38 h 11.44 v 3.12 l -2.99,4.29 c 1.84,0.57 3.05,2.26 3.05,4.47 v 4.14 -0.02 z m 14.17,-12.48 c 0,2 -0.26,3.04 -0.93,4.91 l -4.44,12.5 h -4.16 l 5.49,-15.41 c 0.08,-0.2 0.1,-0.39 0.1,-0.62 v -1.53 h -7.38 v -3.38 h 11.33 v 3.53 z"
       id="path6"
       style="display:inline" />
    <path
       class="cls-3"
       d="m 454.09,635.85 c 0,-0.46 -0.31,-0.76 -0.76,-0.76 h -3.97 c -0.46,0 -0.76,0.31 -0.76,0.76 v 10.74 l 5.5,-1.07 v -9.67 0 z"
       id="path7" />
    <path
       class="cls-3"
       d="m 519.54,600.31 v -2.95 c 0,-6.5 -2.28,-9.31 -7.12,-10.05 1.11,1.71 1.84,3.83 1.84,6.14 0,2.64 -0.93,5.04 -2.32,6.86 h 7.59 z"
       id="path8" />
    <path
       class="cls-3"
       d="m 399.94,652.16 c 39.43,43.74 79.92,69.97 100.06,81.49 20.15,-11.52 60.63,-37.75 100.07,-81.49 31.07,-34.47 55.65,-73.23 73.17,-115.27 l -332.52,29.93 c 15.85,30.62 35.68,59.22 59.23,85.35 v 0 z m 60.32,-28.7 c -1.62,0 -2.87,-1.26 -2.87,-2.87 0,-1.61 1.26,-2.87 2.87,-2.87 1.61,0 2.87,1.26 2.87,2.87 0,1.61 -1.26,2.87 -2.87,2.87 z m 20,32.87 c 0,2.68 -1.91,4.58 -4.58,4.58 h -11.92 v -30.8 h 5.81 v 25.83 h 4.13 c 0.46,0 0.76,-0.31 0.76,-0.76 v -8.67 l 5.81,-1.15 v 10.96 z m 26.9,4.59 h -5.81 v -9.86 h -5.5 v 9.86 h -5.81 v -24.3 c 0,-4.01 3.17,-6.88 7.64,-6.88 h 1.84 c 4.47,0 7.64,2.86 7.64,6.88 z m 44.67,-83.84 5.38,-1.55 v 37.53 h -5.38 z m -0.43,53.04 h 5.81 v 30.8 h -5.81 z m -2.94,26.21 c 0,2.68 -1.91,4.58 -4.58,4.58 h -11.92 v -30.8 h 5.81 v 25.83 h 4.13 c 0.46,0 0.76,-0.31 0.76,-0.76 v -8.67 l 5.81,-1.15 v 10.96 z m -6.88,-79.25 5.38,-1.55 v 37.53 H 530.3 v -12.83 h 11.28 z m -11.36,-0.95 h 1.62 l -0.52,-0.74 c -0.44,-0.67 -0.59,-1.11 -0.59,-1.62 0,-1.11 0.96,-2.21 2.5,-2.21 1.4,0 2.28,0.89 2.28,2.13 v 0.74 h -1.62 v -0.44 c 0,-0.52 -0.3,-0.81 -0.74,-0.81 -0.37,0 -0.74,0.22 -0.74,0.59 0,0.22 0.15,0.52 0.3,0.81 l 0.96,1.55 h 1.84 v 1.62 h -5.3 v -1.62 0 z m 0,4.56 5.38,-1.48 v 18.51 h -5.38 z m -2.24,80.22 h -5.81 V 647.5 h -5.35 v 13.41 h -5.81 v -30.8 h 5.81 v 12.92 l 5.35,-1.03 v -11.88 h 5.81 v 30.8 0 z m -73.11,-80.52 0.67,0.59 c -3.98,4.13 -9.58,10.99 -9.58,17.11 0,5.31 4.13,7.97 9.51,7.97 5.38,0 7.3,-1.84 7.3,-4.21 0,-2.73 -6.41,-5.9 -6.41,-11.06 0,-5.9 3.69,-7.82 13.2,-12.46 l 11.43,21.97 h 4.28 v -23.22 l 5.38,-1.55 v 24.78 h 9.51 c -1.38,-1.81 -2.32,-4.21 -2.32,-6.86 0,-2.4 0.79,-4.6 1.99,-6.34 h -4.68 v -5.38 h 13.49 c 11.43,0 16.29,4.87 16.29,14.16 v 17.18 h -10.54 c -3.17,0 -5.97,-0.59 -8.33,-1.62 -2.28,1.04 -5.02,1.62 -8.04,1.62 h -16.44 l -13.94,-26.76 c -3.17,1.26 -3.69,2.28 -3.69,3.1 0,2.87 7.37,6.19 7.37,14.68 0,6.41 -5.45,11.58 -14.45,11.58 -7.82,0 -14.08,-4.35 -14.08,-13.79 0,-6.56 4.43,-14.9 12.09,-21.46 v -0.02 z m 1.17,40.19 c 0,1.62 -1.26,2.87 -2.87,2.87 -1.61,0 -2.87,-1.26 -2.87,-2.87 0,-1.61 1.26,-2.87 2.87,-2.87 1.61,0 2.87,1.26 2.87,2.87 z m -13.27,16.02 c 0,-4.01 3.17,-6.88 7.64,-6.88 h 1.84 c 4.47,0 7.64,2.86 7.64,6.88 v 24.3 h -5.81 v -9.86 h -5.5 v 9.86 h -5.81 z"
       id="path9"
       style="display:inline" />
    <path
       class="cls-3"
       d="m 500.6,635.09 h -3.97 c -0.46,0 -0.76,0.31 -0.76,0.76 v 10.74 l 5.5,-1.07 v -9.67 c 0,-0.46 -0.31,-0.76 -0.76,-0.76 v 0 z"
       id="path10" />
    <path
       class="cls-3"
       d="m 506.04,600.23 c 2.58,-1.84 3.91,-4.43 3.91,-6.56 0,-2.13 -1.33,-4.72 -3.91,-6.56 -2.58,1.84 -3.91,4.43 -3.91,6.56 0,2.13 1.33,4.72 3.91,6.56 z"
       id="path11" />
  </g>
</svg>
