<?xml version="1.0" encoding="UTF-8" standalone="no"?>
<!-- Created with Inkscape (http://www.inkscape.org/) -->

<svg
   width="423.46869mm"
   height="535.29803mm"
   viewBox="0 0 423.46869 535.29804"
   version="1.1"
   id="svg2224"
   inkscape:version="1.1 (c68e22c387, 2021-05-23)"
   sodipodi:docname="Wydad Athletic Club logo (1937).svg"
   xmlns:inkscape="http://www.inkscape.org/namespaces/inkscape"
   xmlns:sodipodi="http://sodipodi.sourceforge.net/DTD/sodipodi-0.dtd"
   xmlns="http://www.w3.org/2000/svg"
   xmlns:svg="http://www.w3.org/2000/svg">
  <sodipodi:namedview
     id="namedview2226"
     pagecolor="#ffffff"
     bordercolor="#666666"
     borderopacity="1.0"
     inkscape:pageshadow="2"
     inkscape:pageopacity="0.0"
     inkscape:pagecheckerboard="0"
     inkscape:document-units="mm"
     showgrid="false"
     fit-margin-top="0"
     fit-margin-left="0"
     fit-margin-right="0"
     fit-margin-bottom="0"
     inkscape:zoom="0.062359709"
     inkscape:cx="-1082.4297"
     inkscape:cy="328.7379"
     inkscape:window-width="1366"
     inkscape:window-height="745"
     inkscape:window-x="-8"
     inkscape:window-y="-8"
     inkscape:window-maximized="1"
     inkscape:current-layer="layer1" />
  <defs
     id="defs2221" />
  <g
     inkscape:label="Layer 1"
     inkscape:groupmode="layer"
     id="layer1"
     transform="translate(-151.07202,-86.677964)">
    <g
       id="g477"
       transform="matrix(15.391639,0,0,-15.391639,441.54337,110.32716)">
      <path
         d="m 0,0 c -0.759,0.045 -9.057,-0.011 -10.471,-0.051 -0.138,-0.004 -1.072,-1.56 -1.481,-2.204 -0.522,-0.823 -1.064,-1.632 -1.568,-2.465 -1.139,-1.884 -2.257,-3.782 -3.39,-5.671 -0.165,-0.276 7.687,-12.729 8.633,-14.255 0.87,-1.406 1.787,-2.782 2.686,-4.17 0.381,-0.588 0.754,-1.183 1.158,-1.755 0.267,-0.378 0.58,-0.349 0.779,0.064 0.327,0.68 10.731,19.397 10.505,19.849 C 6.259,-9.472 1.817,-1.831 1.353,-0.913 1.209,-0.628 0.599,-0.035 0,0 m -3.7,-33.242 c -0.58,0.8 -1.121,1.599 -1.715,2.357 -2.65,3.378 -12.021,18.031 -12.926,19.351 -0.237,0.344 -0.628,1.174 -0.509,1.294 0.381,0.386 5.885,9.161 7.16,11.308 0.219,0.369 1.55,0.41 1.867,0.411 0.73,0.004 6.972,0.068 9.364,0.056 C 0.175,1.532 0.811,1.468 1.44,1.389 1.618,1.366 1.834,1.228 1.932,1.078 2.205,0.661 2.428,0.211 2.663,-0.229 3.367,-1.55 4.119,-2.841 4.912,-4.111 c 0.707,-1.133 1.332,-2.317 1.982,-3.485 0.575,-1.033 1.138,-2.073 1.691,-3.117 0.061,-0.115 0.078,-0.311 0.021,-0.42 -0.519,-0.996 -12.03,-21.58 -12.306,-22.109"
         style="fill:#ee292c;fill-opacity:1;fill-rule:nonzero;stroke:none"
         id="path479" />
    </g>
    <g
       id="g481"
       transform="matrix(15.391639,0,0,-15.391639,364.73609,285.94883)">
      <path
         d="m 0,0 c -0.638,0.043 -1.161,0.104 -1.684,0.108 -0.498,0.005 -0.978,-0.107 -1.398,-0.405 -0.211,-0.151 -0.316,-0.341 -0.219,-0.593 0.217,-0.558 0.447,-1.111 0.67,-1.668 0.148,-0.372 0.286,-0.749 0.438,-1.12 0.08,-0.195 0.18,-0.381 0.315,-0.66 C -1.236,-2.856 -1.063,-1.292 0,0 M 0.22,-2.814 C 0.127,-3.031 0.05,-3.198 -0.018,-3.369 -0.417,-4.386 -0.812,-5.405 -1.213,-6.422 -1.441,-7 -1.389,-7.104 -0.777,-7.238 c 0.064,-0.014 0.13,-0.021 0.195,-0.021 0.657,0 1.314,-0.005 1.97,0.008 0.377,0.006 0.52,0.182 0.427,0.556 -0.084,0.338 -1.298,3.614 -1.595,3.881 m -3.127,-4.069 c 0.125,0.416 0.231,0.811 0.092,1.181 -0.353,0.94 -0.74,1.869 -1.147,2.787 -0.154,0.348 -0.807,1.65 -1.026,1.536 -0.373,-0.193 -0.729,-0.914 -0.729,-0.914 0,0 -0.356,-1.287 0.384,-2.424 0.632,-0.893 1.532,-1.48 2.426,-2.166 M 1.451,0.245 C 0.943,0.215 0.868,0.132 0.952,-0.365 c 0.025,-0.149 0.07,-0.296 0.122,-0.438 0.18,-0.489 0.365,-0.978 0.555,-1.465 0.047,-0.12 0.124,-0.228 0.183,-0.343 0.193,-0.377 0.403,-0.745 0.568,-1.133 0.128,-0.3 0.192,-0.627 0.296,-0.937 0.098,-0.292 0.179,-0.298 0.408,-0.113 0.296,0.238 0.371,0.561 0.456,0.906 0.186,0.753 0.419,1.494 0.626,2.242 0.105,0.383 0.032,0.547 -0.306,0.728 -0.559,0.3 -1.114,0.606 -1.681,0.891 -0.23,0.115 -0.485,0.182 -0.728,0.272 m 2.736,-6.787 c 0.112,0.036 0.246,0.045 0.332,0.114 0.324,0.259 0.623,0.55 0.953,0.8 0.12,0.091 0.307,0.149 0.457,0.136 C 6.22,-5.517 6.505,-5.603 6.838,-5.673 6.775,-5.852 6.75,-6.031 6.659,-6.166 6.178,-6.875 5.683,-7.567 4.849,-7.925 4.261,-8.178 4.156,-8.598 4.501,-9.145 4.726,-9.5 4.726,-9.521 4.354,-9.702 4.06,-9.844 3.765,-10.002 3.453,-10.085 3.007,-10.204 2.891,-10.098 2.825,-9.637 2.802,-9.475 2.788,-9.31 2.75,-9.151 2.683,-8.877 2.513,-8.82 2.34,-9.032 2.148,-9.267 1.919,-9.324 1.641,-9.294 c -1.044,0.112 -2.089,0.214 -3.131,0.343 -0.257,0.033 -0.388,-0.02 -0.463,-0.271 -0.107,-0.356 -0.232,-0.707 -0.364,-1.055 -0.192,-0.505 -0.377,-0.552 -0.783,-0.214 -0.177,0.147 -0.357,0.292 -0.524,0.45 -0.414,0.396 -0.33,0.833 0.184,1.078 0.137,0.066 0.263,0.187 0.353,0.313 0.112,0.158 0.059,0.298 -0.114,0.411 -0.643,0.417 -1.275,0.851 -1.919,1.267 -0.568,0.368 -1.061,0.81 -1.451,1.366 -0.66,1.171 -0.863,1.913 -0.586,3.758 0.172,1.091 0.808,1.837 1.724,2.331 1.417,0.765 2.904,1.339 4.562,1.283 0.316,-0.011 0.636,0.012 0.952,0.043 C 1.109,1.91 2.098,1.74 3.023,1.302 3.94,0.869 4.929,0.569 5.732,-0.084 6.131,-0.408 6.52,-0.747 6.905,-1.088 7.007,-1.18 7.126,-1.295 7.155,-1.419 7.272,-1.921 7.577,-2.303 7.891,-2.685 8.159,-3.011 8.149,-3.157 7.85,-3.433 7.48,-3.773 7.163,-3.823 6.902,-3.539 6.577,-3.185 6.281,-2.803 5.972,-2.434 5.902,-2.35 5.827,-2.271 5.704,-2.132 5.043,-3.556 4.529,-4.982 4.112,-6.446 4.137,-6.478 4.163,-6.51 4.187,-6.542"
         style="fill:#ee292c;fill-opacity:1;fill-rule:nonzero;stroke:none"
         id="path483" />
    </g>
    <g
       id="g485"
       transform="matrix(15.391639,0,0,-15.391639,469.85301,215.94919)">
      <path
         d="M 0,0 C -0.14,0.192 -0.235,0.385 -0.384,0.517 -0.595,0.704 -0.838,0.857 -1.082,1.001 -1.168,1.053 -1.341,1.085 -1.396,1.037 -1.476,0.965 -1.534,0.808 -1.518,0.698 -1.435,0.114 -0.644,-0.295 0,0 m -2.64,-1.38 c 0.224,0.196 0.46,0.127 0.698,0.035 0.306,-0.117 0.607,-0.251 0.919,-0.348 0.106,-0.033 0.274,-0.019 0.355,0.047 0.21,0.172 0.392,0.38 0.575,0.583 0.043,0.049 0.081,0.152 0.058,0.197 -0.025,0.048 -0.132,0.088 -0.192,0.075 -0.423,-0.087 -0.74,0.11 -1.049,0.355 -0.136,0.108 -0.29,0.195 -0.443,0.279 -0.418,0.23 -0.527,0.466 -0.455,1.016 0.059,0.45 0.338,0.794 0.723,0.879 0.083,0.018 0.19,0.034 0.257,-0.002 C -0.792,1.519 -0.309,1.365 -0.021,1.042 0.548,0.4 0.801,-0.391 0.61,-1.275 0.465,-1.95 -0.089,-2.191 -0.631,-2.36 -1.415,-2.604 -2.254,-2.157 -2.64,-1.38"
         style="fill:#ee292c;fill-opacity:1;fill-rule:nonzero;stroke:none"
         id="path487" />
    </g>
    <g
       id="g489"
       transform="matrix(15.391639,0,0,-15.391639,259.09078,231.4085)">
      <path
         d="M 0,0 C 0.316,0.217 0.599,0.2 0.894,-0.002 1.332,-0.302 1.801,-0.354 2.297,-0.15 2.808,0.059 2.958,0.667 2.552,1.028 2.105,1.426 1.623,1.784 1.146,2.145 0.64,2.528 0.567,2.718 0.777,3.234 0.895,3.521 1.192,3.619 1.41,3.4 1.987,2.819 2.593,2.253 3.09,1.607 3.68,0.84 3.346,-0.373 2.526,-0.73 1.685,-1.097 0.577,-0.788 0,0"
         style="fill:#ee292c;fill-opacity:1;fill-rule:nonzero;stroke:none"
         id="path491" />
    </g>
    <g
       id="g493"
       transform="matrix(15.391639,0,0,-15.391639,343.0538,151.5044)">
      <path
         d="M 0,0 C 0.409,0.027 0.713,0.048 1.018,0.067 1.249,0.082 1.355,-0.04 1.311,-0.255 0.978,-1.876 0.995,-3.52 0.999,-5.162 0.999,-5.364 0.969,-5.513 0.723,-5.507 0.497,-5.502 0.301,-5.46 0.298,-5.173 0.292,-4.604 0.299,-4.033 0.277,-3.464 0.264,-3.116 0.199,-2.77 0.172,-2.421 0.111,-1.629 0.059,-0.837 0,0"
         style="fill:#ee292c;fill-opacity:1;fill-rule:nonzero;stroke:none"
         id="path495" />
    </g>
    <g
       id="g497"
       transform="matrix(15.391639,0,0,-15.391639,385.69628,182.18305)">
      <path
         d="M 0,0 C 0.705,-0.233 1.337,-0.535 1.893,-0.99 2.212,-1.251 2.401,-1.577 2.459,-1.991 2.569,-2.779 2.195,-3.51 1.525,-3.945 1.034,-4.264 0.543,-4.316 0,-4.161 c -0.207,0.059 -0.421,0.093 -0.606,0.132 0.023,0.239 0.044,0.46 0.069,0.722 0.18,-0.061 0.423,-0.142 0.665,-0.226 0.664,-0.233 1.487,0.154 1.706,0.814 0.023,0.069 0.253,0.705 -0.248,1.014 C 1.23,-1.511 0.875,-1.316 0.515,-1.133 0.309,-1.029 0.213,-0.882 0.19,-0.646 0.171,-0.449 0.08,-0.259 0,0"
         style="fill:#ee292c;fill-opacity:1;fill-rule:nonzero;stroke:none"
         id="path499" />
    </g>
  </g>
</svg>
