<svg xmlns="http://www.w3.org/2000/svg" viewBox="0 0 100 100" width="100" height="100">
    <defs>
      <linearGradient id="tigerGrad" x1="0%" y1="0%" x2="100%" y2="100%">
        <stop offset="0%" stop-color="#ffb03a"/>
        <stop offset="50%" stop-color="#ff5e3a"/>
        <stop offset="100%" stop-color="#990000"/>
      </linearGradient>
    </defs>
    <path d="M50,92 L20,62 L20,22 L50,8 L80,22 L80,62 Z" fill="#0f172a" stroke="url(#tigerGrad)" stroke-width="2" />
    <polygon points="50,22 36,36 40,48 50,44 60,48 64,36" fill="url(#tigerGrad)" />
    <polygon points="36,36 24,42 28,54 40,48" fill="#ff5e3a" />
    <polygon points="64,36 76,42 72,54 60,48" fill="#ff5e3a" />
    <polygon points="50,44 44,58 50,66 56,58" fill="#1e293b" stroke="#ffb03a" stroke-width="1.5" />
    <polygon points="40,42 46,44 44,40" fill="#fff" filter="drop-shadow(0 0 3px #fff)" />
    <polygon points="60,42 54,44 56,40" fill="#fff" filter="drop-shadow(0 0 3px #fff)" />
    <polygon points="44,58 46,62 48,58" fill="#fff" />
    <polygon points="56,58 54,62 52,58" fill="#fff" />
    <path d="M50,22 L50,32 M42,28 L48,32 M58,28 L52,32 M28,45 L36,44 M72,45 L64,44" stroke="#0f172a" stroke-width="2" stroke-linecap="round" />
  </svg>